<?xml version="1.0" standalone="no"?>
<!DOCTYPE svg PUBLIC "-//W3C//DTD SVG 20010904//EN"
 "http://www.w3.org/TR/2001/REC-SVG-20010904/DTD/svg10.dtd">
<svg version="1.0" xmlns="http://www.w3.org/2000/svg"
 width="500.000000pt" height="500.000000pt" viewBox="0 0 500.000000 500.000000"
 preserveAspectRatio="xMidYMid meet">

<g transform="translate(0.000000,500.000000) scale(0.100000,-0.100000)"
fill="#000000" stroke="none">
<path d="M1791 3598 c-102 -50 -150 -194 -97 -296 24 -46 76 -91 128 -108 l48
-16 0 -334 0 -334 85 0 85 0 0 195 0 195 195 0 195 0 0 -195 0 -195 85 0 85 0
0 430 0 430 -85 0 -85 0 0 -160 0 -160 -195 0 -195 0 0 90 c0 84 2 92 32 135
57 80 50 198 -15 272 -64 73 -178 95 -266 51z"/>
<path d="M2686 2763 c10 -60 53 -148 87 -181 59 -57 119 -77 232 -77 89 0 106
3 151 27 85 45 143 127 159 226 l7 42 -85 0 -85 0 -7 -42 c-5 -30 -19 -54 -45
-80 -35 -36 -41 -38 -100 -38 -57 0 -65 3 -95 33 -21 21 -38 52 -46 80 l-11
47 -85 0 -84 0 7 -37z"/>
<path d="M2051 2239 c-136 -54 -212 -217 -181 -389 29 -160 128 -248 290 -258
84 -5 141 7 191 41 41 28 99 102 99 128 0 16 -41 45 -112 77 -4 2 -16 -14 -27
-35 -25 -49 -66 -73 -128 -73 -91 0 -137 52 -149 167 -9 80 15 162 57 197 25
21 41 26 85 26 65 0 104 -18 131 -60 l19 -30 57 40 c31 23 57 47 57 53 0 23
-61 87 -103 109 -63 33 -212 36 -286 7z"/>
</g>
</svg>
