<svg width="180" height="300" viewBox="0 0 180 300" fill="none" xmlns="http://www.w3.org/2000/svg">
<rect x="7" y="165" width="50" height="100" fill="#EED27E"/>
<path d="M70.6562 195.359H84.6719C84.3906 199.953 83.125 204.031 80.875 207.594C78.6562 211.156 75.5469 213.938 71.5469 215.938C67.5781 217.938 62.7969 218.938 57.2031 218.938C52.8281 218.938 48.9062 218.188 45.4375 216.688C41.9688 215.156 39 212.969 36.5312 210.125C34.0938 207.281 32.2344 203.844 30.9531 199.812C29.6719 195.781 29.0312 191.266 29.0312 186.266V181.531C29.0312 176.531 29.6875 172.016 31 167.984C32.3438 163.922 34.25 160.469 36.7188 157.625C39.2188 154.781 42.2031 152.594 45.6719 151.062C49.1406 149.531 53.0156 148.766 57.2969 148.766C62.9844 148.766 67.7812 149.797 71.6875 151.859C75.625 153.922 78.6719 156.766 80.8281 160.391C83.0156 164.016 84.3281 168.141 84.7656 172.766H70.7031C70.5469 170.016 70 167.688 69.0625 165.781C68.125 163.844 66.7031 162.391 64.7969 161.422C62.9219 160.422 60.4219 159.922 57.2969 159.922C54.9531 159.922 52.9062 160.359 51.1562 161.234C49.4062 162.109 47.9375 163.438 46.75 165.219C45.5625 167 44.6719 169.25 44.0781 171.969C43.5156 174.656 43.2344 177.812 43.2344 181.438V186.266C43.2344 189.797 43.5 192.906 44.0312 195.594C44.5625 198.25 45.375 200.5 46.4688 202.344C47.5938 204.156 49.0312 205.531 50.7812 206.469C52.5625 207.375 54.7031 207.828 57.2031 207.828C60.1406 207.828 62.5625 207.359 64.4688 206.422C66.375 205.484 67.8281 204.094 68.8281 202.25C69.8594 200.406 70.4688 198.109 70.6562 195.359Z" fill="white"/>
<path d="M124.062 218H104.25L104.375 203.375H124.062C128.979 203.375 133.125 202.271 136.5 200.062C139.875 197.812 142.417 194.542 144.125 190.25C145.875 185.958 146.75 180.771 146.75 174.688V170.25C146.75 165.583 146.25 161.479 145.25 157.938C144.292 154.396 142.854 151.417 140.938 149C139.021 146.583 136.667 144.771 133.875 143.562C131.083 142.312 127.875 141.688 124.25 141.688H103.875V127H124.25C130.333 127 135.896 128.042 140.938 130.125C146.021 132.167 150.417 135.104 154.125 138.938C157.833 142.771 160.688 147.354 162.688 152.688C164.729 157.979 165.75 163.875 165.75 170.375V174.688C165.75 181.146 164.729 187.042 162.688 192.375C160.688 197.708 157.833 202.292 154.125 206.125C150.458 209.917 146.062 212.854 140.938 214.938C135.854 216.979 130.229 218 124.062 218ZM114.875 127V218H96.125V127H114.875Z" fill="white"/>
<path d="M167.156 83.2812V86.5156C167.156 91.7031 166.453 96.3594 165.047 100.484C163.641 104.609 161.656 108.125 159.094 111.031C156.531 113.906 153.469 116.109 149.906 117.641C146.375 119.172 142.453 119.938 138.141 119.938C133.859 119.938 129.938 119.172 126.375 117.641C122.844 116.109 119.781 113.906 117.188 111.031C114.594 108.125 112.578 104.609 111.141 100.484C109.734 96.3594 109.031 91.7031 109.031 86.5156V83.2812C109.031 78.0625 109.734 73.4062 111.141 69.3125C112.547 65.1875 114.531 61.6719 117.094 58.7656C119.688 55.8594 122.75 53.6406 126.281 52.1094C129.844 50.5781 133.766 49.8125 138.047 49.8125C142.359 49.8125 146.281 50.5781 149.812 52.1094C153.375 53.6406 156.438 55.8594 159 58.7656C161.594 61.6719 163.594 65.1875 165 69.3125C166.438 73.4062 167.156 78.0625 167.156 83.2812ZM152.953 86.5156V83.1875C152.953 79.5625 152.625 76.375 151.969 73.625C151.312 70.875 150.344 68.5625 149.062 66.6875C147.781 64.8125 146.219 63.4062 144.375 62.4688C142.531 61.5 140.422 61.0156 138.047 61.0156C135.672 61.0156 133.562 61.5 131.719 62.4688C129.906 63.4062 128.359 64.8125 127.078 66.6875C125.828 68.5625 124.875 70.875 124.219 73.625C123.562 76.375 123.234 79.5625 123.234 83.1875V86.5156C123.234 90.1094 123.562 93.2969 124.219 96.0781C124.875 98.8281 125.844 101.156 127.125 103.062C128.406 104.938 129.969 106.359 131.812 107.328C133.656 108.297 135.766 108.781 138.141 108.781C140.516 108.781 142.625 108.297 144.469 107.328C146.312 106.359 147.859 104.938 149.109 103.062C150.359 101.156 151.312 98.8281 151.969 96.0781C152.625 93.2969 152.953 90.1094 152.953 86.5156Z" fill="white"/>
<circle cx="25" cy="25" r="25" fill="#FF0404"/>
<path d="M83.8125 65.0625V79.6875H36.3125V65.0625H83.8125ZM41.875 28V119H23.125V28H41.875ZM97.1875 28V119H78.5V28H97.1875Z" fill="white"/>
<rect x="130" y="149" width="50" height="50" fill="#91D275"/>
<rect x="106" y="44" width="63" height="43" fill="black"/>
<circle cx="115" cy="66" r="10" fill="#418FC4"/>
<circle cx="162" cy="66" r="10" fill="#418FC4"/>
</svg>
